<?xml version="1.0" encoding="UTF-8" standalone="no"?>
<svg width="24px" height="24px" viewBox="0 0 24 24" version="1.1" xmlns="http://www.w3.org/2000/svg" xmlns:xlink="http://www.w3.org/1999/xlink">
    <!-- Generator: Sketch 45.1 (43504) - http://www.bohemiancoding.com/sketch -->
    <title>24</title>
    <desc>Created with Sketch.</desc>
    <defs></defs>
    <g id="Icons" stroke="none" stroke-width="1" fill="none" fill-rule="evenodd">
        <g id="24">
            <g id="Settings_24">
                <polygon id="Fill-38" points="0 24 24 24 24 0 0 0"></polygon>
                <path d="M12,9.75 C10.7595,9.75 9.75,10.7595 9.75,12 C9.75,13.2405 10.7595,14.25 12,14.25 C13.2405,14.25 14.25,13.2405 14.25,12 C14.25,10.7595 13.2405,9.75 12,9.75 M14.509125,22.499625 L9.490875,22.499625 C8.806875,22.499625 8.249625,21.943125 8.249625,21.259125 L8.249625,19.344375 C8.001375,19.216875 7.756875,19.074375 7.518375,18.917625 L5.856375,19.876875 C5.262375,20.218125 4.503375,20.014875 4.160625,19.423875 L1.652625,15.076875 C1.486875,14.789625 1.442625,14.455875 1.528875,14.134875 C1.614375,13.814625 1.819875,13.547625 2.107125,13.381875 L3.762375,12.426375 C3.754125,12.280875 3.749625,12.139125 3.749625,11.999625 C3.749625,11.860875 3.754125,11.719125 3.762375,11.573625 L2.106375,10.618125 C1.819125,10.452375 1.613625,10.184625 1.528125,9.862875 C1.441875,9.542625 1.486875,9.208125 1.654125,8.920875 L4.160625,4.576875 C4.503375,3.984375 5.262375,3.781125 5.855625,4.123125 L7.517625,5.082375 C7.756125,4.926375 8.000625,4.783125 8.249625,4.655625 L8.249625,2.740875 C8.249625,2.056875 8.806875,1.499625 9.490875,1.499625 L14.509125,1.499625 C15.193125,1.499625 15.749625,2.056875 15.749625,2.740875 L15.749625,4.655625 C15.999375,4.783125 16.243875,4.926375 16.482375,5.082375 L18.143625,4.123125 C18.736875,3.781125 19.497375,3.984375 19.839375,4.576125 L22.347375,8.923125 C22.513125,9.210375 22.557375,9.544125 22.471125,9.865125 C22.385625,10.185375 22.180125,10.452375 21.892875,10.618125 L20.237625,11.573625 C20.245875,11.719125 20.249625,11.860875 20.249625,11.999625 C20.249625,12.139125 20.245875,12.280875 20.237625,12.426375 L21.893625,13.381875 C22.180125,13.547625 22.385625,13.814625 22.471125,14.134875 C22.557375,14.455875 22.513125,14.789625 22.347375,15.077625 L19.839375,19.423125 C19.496625,20.015625 18.736875,20.218125 18.144375,19.876875 L16.481625,18.917625 C16.243125,19.074375 15.998625,19.216875 15.749625,19.344375 L15.749625,21.259125 C15.749625,21.943125 15.193125,22.499625 14.509125,22.499625 Z M2.952375,9.671625 C2.952375,9.672375 2.951625,9.672375 2.951625,9.673125 L2.952375,9.671625 Z M9.749625,20.999625 L14.249625,20.999625 L14.249625,18.380625 L14.699625,18.184875 C15.146625,17.989125 15.584625,17.734125 15.999375,17.427375 L16.394625,17.135625 L18.669375,18.448875 L20.918625,14.551875 L18.650625,13.242375 L18.704625,12.754125 C18.732375,12.506625 18.749625,12.255375 18.749625,11.999625 C18.749625,11.745375 18.732375,11.494125 18.704625,11.246625 L18.650625,10.758375 L20.918625,9.448125 L18.669375,5.551125 L16.395375,6.864375 L16.000125,6.572625 C15.586125,6.266625 15.148125,6.011625 14.699625,5.815125 L14.249625,5.619375 L14.249625,2.999625 L9.749625,2.999625 L9.749625,5.619375 L9.300375,5.815125 C8.851875,6.011625 8.413875,6.266625 7.999125,6.572625 L7.604625,6.864375 L5.330625,5.551125 L3.081375,9.448125 L5.349375,10.758375 L5.295375,11.246625 C5.267625,11.494125 5.249625,11.745375 5.249625,11.999625 C5.249625,12.255375 5.267625,12.506625 5.295375,12.754125 L5.349375,13.242375 L3.081375,14.551875 L5.330625,18.448875 L7.605375,17.135625 L7.999875,17.427375 C8.415375,17.734125 8.853375,17.989125 9.300375,18.184875 L9.749625,18.380625 L9.749625,20.999625 Z M12,15.75 C9.93225,15.75 8.25,14.06775 8.25,12 C8.25,9.93225 9.93225,8.25 12,8.25 C14.06775,8.25 15.75,9.93225 15.75,12 C15.75,14.06775 14.06775,15.75 12,15.75 Z" id="Combined-Shape" fill="#003BDE"></path>
            </g>
        </g>
    </g>
</svg>