<?xml version="1.0" encoding="UTF-8"?>
<svg width="16px" height="16px" viewBox="0 0 16 16" version="1.1" xmlns="http://www.w3.org/2000/svg" xmlns:xlink="http://www.w3.org/1999/xlink">
    <!-- Generator: Sketch 46.2 (44496) - http://www.bohemiancoding.com/sketch -->
    <title>Artboard 2</title>
    <desc>Created with Sketch.</desc>
    <defs></defs>
    <g id="Icons" stroke="none" stroke-width="1" fill="none" fill-rule="evenodd">
        <g id="Artboard-2" fill="#99A8BB">
            <path d="M3,14 L13,14 L13,2 L3,2 L3,14 Z M2,15 L2,1 L14,1 L14,15 L2,15 Z M8,6 C8.5515,6 9,6.4485 9,7 C9,7.5515 8.5515,8 8,8 C7.4485,8 7,7.5515 7,7 C7,6.4485 7.4485,6 8,6 Z M8,9 C9.103,9 10,8.103 10,7 C10,5.897 9.103,5 8,5 C6.897,5 6,5.897 6,7 C6,8.103 6.897,9 8,9 Z M5.5,11 L10.5,11 L10.5,10 L5.5,10 L5.5,11 Z" id="Combined-Shape"></path>
        </g>
    </g>
</svg>