<?xml version="1.0" encoding="UTF-8" standalone="no"?>
<svg width="16px" height="16px" viewBox="0 0 16 16" version="1.1" xmlns="http://www.w3.org/2000/svg" xmlns:xlink="http://www.w3.org/1999/xlink">
    <!-- Generator: Sketch 45.1 (43504) - http://www.bohemiancoding.com/sketch -->
    <title>Artboard</title>
    <desc>Created with Sketch.</desc>
    <defs></defs>
    <g id="Icons" stroke="none" stroke-width="1" fill="none" fill-rule="evenodd">
        <g id="Artboard">
            <g id="Trash_16">
                <polygon id="Fill-17" points="0 16 16 16 16 0 0 0"></polygon>
                <path d="M13,5 L3,5 L3,4 L5,4 L11,4 L13,4 L13,5 Z M4,14 L12,14 L12,6 L4,6 L4,14 Z M6,2.0525 C6,2.0235 6.0235,2 6.0525,2 L9.9475,2 C9.9765,2 10,2.0235 10,2.0525 L10,3 L6,3 L6,2.0525 Z M14,3 L11,3 L11,2.0525 C11,1.472 10.528,1 9.9475,1 L6.0525,1 C5.472,1 5,1.472 5,2.0525 L5,3 L2,3 L2,6 L3,6 L3,15 L13,15 L13,6 L14,6 L14,3 Z" id="Fill-249" fill="#FFFFFF"></path>
            </g>
        </g>
    </g>
</svg>