<?xml version="1.0" encoding="UTF-8"?>
<svg width="24px" height="24px" viewBox="0 0 24 24" version="1.1" xmlns="http://www.w3.org/2000/svg" xmlns:xlink="http://www.w3.org/1999/xlink">
    <!-- Generator: Sketch 46.2 (44496) - http://www.bohemiancoding.com/sketch -->
    <title>Artboard</title>
    <desc>Created with Sketch.</desc>
    <defs></defs>
    <g id="Icons" stroke="none" stroke-width="1" fill="none" fill-rule="evenodd">
        <g id="Artboard" fill="#001837">
            <path d="M12.75,3.57495 L15.54225,5.2497 L12.75,6.9252 L12.75,3.57495 Z M7.227,7.2267 C5.952,8.5017 5.25,10.1967 5.25,11.9997 C5.25,12.93945 5.439,13.84845 5.81175,14.70045 L4.43775,15.3012 C3.981,14.2587 3.75,13.14795 3.75,11.9997 C3.75,9.7962 4.608,7.72395 6.1665,6.1662 C7.5465,4.7862 9.32925,3.95895 11.25,3.78645 L11.25,2.31645 L12.36075,1.6872 L17.25,4.6212 L17.25,5.87895 L12.36075,8.8122 L11.25,8.1837 L11.25,5.2947 C9.7305,5.46195 8.32275,6.13095 7.227,7.2267 Z M20.25,12.00105 C20.25,14.20455 19.392,16.2768 17.8335,17.83455 C16.4535,19.21455 14.67075,20.0418 12.75,20.2143 L12.75,21.6843 L11.63925,22.31355 L6.75,19.37955 L6.75,18.1218 L11.63925,15.18855 L12.75,15.81705 L12.75,18.70605 C14.2695,18.5388 15.67725,17.8698 16.773,16.77405 C18.048,15.49905 18.75,13.80405 18.75,12.00105 C18.75,11.06205 18.561,10.15305 18.18825,9.3003 L19.563,8.69955 C20.019,9.7428 20.25,10.85355 20.25,12.00105 Z M11.25,20.4258 L11.25,17.07555 L8.45775,18.75105 L11.25,20.4258 Z" id="Combined-Shape"></path>
        </g>
    </g>
</svg>