<?xml version="1.0" encoding="UTF-8" standalone="no"?>
<svg width="16px" height="16px" viewBox="0 0 16 16" version="1.1" xmlns="http://www.w3.org/2000/svg" xmlns:xlink="http://www.w3.org/1999/xlink">
    <!-- Generator: Sketch 45.1 (43504) - http://www.bohemiancoding.com/sketch -->
    <title>16</title>
    <desc>Created with Sketch.</desc>
    <defs></defs>
    <g id="Icons" stroke="none" stroke-width="1" fill="none" fill-rule="evenodd">
        <g id="16">
            <g id="Settings_16">
                <polygon id="Fill-38" points="0 16 16 16 16 0 0 0"></polygon>
                <path d="M8,6.5 C7.173,6.5 6.5,7.173 6.5,8 C6.5,8.827 7.173,9.5 8,9.5 C8.827,9.5 9.5,8.827 9.5,8 C9.5,7.173 8.827,6.5 8,6.5 M9.67275,14.99975 L6.32725,14.99975 C5.87125,14.99975 5.49975,14.62875 5.49975,14.17275 L5.49975,12.89625 C5.33425,12.81125 5.17125,12.71625 5.01225,12.61175 L3.90425,13.25125 C3.50825,13.47875 3.00225,13.34325 2.77375,12.94925 L1.10175,10.05125 C0.99125,9.85975 0.96175,9.63725 1.01925,9.42325 C1.07625,9.20975 1.21325,9.03175 1.40475,8.92125 L2.50825,8.28425 C2.50275,8.18725 2.49975,8.09275 2.49975,7.99975 C2.49975,7.90725 2.50275,7.81275 2.50825,7.71575 L1.40425,7.07875 C1.21275,6.96825 1.07575,6.78975 1.01875,6.57525 C0.96125,6.36175 0.99125,6.13875 1.10275,5.94725 L2.77375,3.05125 C3.00225,2.65625 3.50825,2.52075 3.90375,2.74875 L5.01175,3.38825 C5.17075,3.28425 5.33375,3.18875 5.49975,3.10375 L5.49975,1.82725 C5.49975,1.37125 5.87125,0.99975 6.32725,0.99975 L9.67275,0.99975 C10.12875,0.99975 10.49975,1.37125 10.49975,1.82725 L10.49975,3.10375 C10.66625,3.18875 10.82925,3.28425 10.98825,3.38825 L12.09575,2.74875 C12.49125,2.52075 12.99825,2.65625 13.22625,3.05075 L14.89825,5.94875 C15.00875,6.14025 15.03825,6.36275 14.98075,6.57675 C14.92375,6.79025 14.78675,6.96825 14.59525,7.07875 L13.49175,7.71575 C13.49725,7.81275 13.49975,7.90725 13.49975,7.99975 C13.49975,8.09275 13.49725,8.18725 13.49175,8.28425 L14.59575,8.92125 C14.78675,9.03175 14.92375,9.20975 14.98075,9.42325 C15.03825,9.63725 15.00875,9.85975 14.89825,10.05175 L13.22625,12.94875 C12.99775,13.34375 12.49125,13.47875 12.09625,13.25125 L10.98775,12.61175 C10.82875,12.71625 10.66575,12.81125 10.49975,12.89625 L10.49975,14.17275 C10.49975,14.62875 10.12875,14.99975 9.67275,14.99975 Z M1.96825,6.44775 C1.96825,6.44825 1.96775,6.44825 1.96775,6.44875 L1.96825,6.44775 Z M6.49975,13.99975 L9.49975,13.99975 L9.49975,12.25375 L9.79975,12.12325 C10.09775,11.99275 10.38975,11.82275 10.66625,11.61825 L10.92975,11.42375 L12.44625,12.29925 L13.94575,9.70125 L12.43375,8.82825 L12.46975,8.50275 C12.48825,8.33775 12.49975,8.17025 12.49975,7.99975 C12.49975,7.83025 12.48825,7.66275 12.46975,7.49775 L12.43375,7.17225 L13.94575,6.29875 L12.44625,3.70075 L10.93025,4.57625 L10.66675,4.38175 C10.39075,4.17775 10.09875,4.00775 9.79975,3.87675 L9.49975,3.74625 L9.49975,1.99975 L6.49975,1.99975 L6.49975,3.74625 L6.20025,3.87675 C5.90125,4.00775 5.60925,4.17775 5.33275,4.38175 L5.06975,4.57625 L3.55375,3.70075 L2.05425,6.29875 L3.56625,7.17225 L3.53025,7.49775 C3.51175,7.66275 3.49975,7.83025 3.49975,7.99975 C3.49975,8.17025 3.51175,8.33775 3.53025,8.50275 L3.56625,8.82825 L2.05425,9.70125 L3.55375,12.29925 L5.07025,11.42375 L5.33325,11.61825 C5.61025,11.82275 5.90225,11.99275 6.20025,12.12325 L6.49975,12.25375 L6.49975,13.99975 Z M8,10.5 C6.6215,10.5 5.5,9.3785 5.5,8 C5.5,6.6215 6.6215,5.5 8,5.5 C9.3785,5.5 10.5,6.6215 10.5,8 C10.5,9.3785 9.3785,10.5 8,10.5 Z" id="Combined-Shape" fill="#003BDE"></path>
            </g>
        </g>
    </g>
</svg>