<?xml version="1.0" encoding="UTF-8"?>
<svg width="16px" height="16px" viewBox="0 0 16 16" version="1.1" xmlns="http://www.w3.org/2000/svg" xmlns:xlink="http://www.w3.org/1999/xlink">
    <!-- Generator: Sketch 46.2 (44496) - http://www.bohemiancoding.com/sketch -->
    <title>Artboard 2</title>
    <desc>Created with Sketch.</desc>
    <defs></defs>
    <g id="Icons" stroke="none" stroke-width="1" fill="none" fill-rule="evenodd">
        <g id="Artboard-2" fill="#F75C43">
            <g id="Incomplete_16-Copy" transform="translate(1.000000, 1.000000)">
                <path d="M11.9497,2.0503 C9.2202,-0.6792 4.7797,-0.6792 2.0502,2.0503 C-0.6793,4.7798 -0.6793,9.2203 2.0502,11.9498 C4.7797,14.6793 9.2202,14.6793 11.9497,11.9498 C14.6792,9.2203 14.6792,4.7798 11.9497,2.0503 M11.2427,2.7573 C13.5857,5.1008 13.5857,8.8993 11.2427,11.2428 C8.8992,13.5858 5.1007,13.5858 2.7572,11.2428 C0.4142,8.8993 0.4142,5.1008 2.7572,2.7573 C5.1007,0.4143 8.8992,0.4143 11.2427,2.7573 Z M9.4751,8.7676 L7.7071,7.0001 L9.4751,5.2326 L8.7676,4.5251 L7.0001,6.2931 L5.2326,4.5251 L4.5251,5.2326 L6.2931,7.0001 L4.5251,8.7676 L5.2326,9.4751 L7.0001,7.7071 L8.7676,9.4751 L9.4751,8.7676 Z" id="Combined-Shape"></path>
            </g>
        </g>
    </g>
</svg>