<?xml version="1.0" encoding="UTF-8"?>
<svg width="16px" height="16px" viewBox="0 0 16 16" version="1.1" xmlns="http://www.w3.org/2000/svg" xmlns:xlink="http://www.w3.org/1999/xlink">
    <!-- Generator: Sketch 46.2 (44496) - http://www.bohemiancoding.com/sketch -->
    <title>Artboard 2</title>
    <desc>Created with Sketch.</desc>
    <defs></defs>
    <g id="Icons" stroke="none" stroke-width="1" fill="none" fill-rule="evenodd">
        <g id="Artboard-2" fill="#003BDE">
            <path d="M12.263,9.0505 C12.13,9.1705 11.956,9.2455 11.763,9.2455 C11.57,9.2455 11.3965,9.1705 11.263,9.0505 C11.1105,8.9135 11.013,8.7165 11.013,8.4955 C11.013,8.2745 11.1105,8.078 11.263,7.9405 C11.3965,7.8205 11.57,7.7455 11.763,7.7455 C11.956,7.7455 12.13,7.821 12.263,7.9405 C12.4155,8.078 12.513,8.275 12.513,8.4955 C12.513,8.7165 12.4155,8.913 12.263,9.0505 M12.2585,6.827 C12.979,7.044 13.5085,7.706 13.5085,8.4955 C13.5085,9.2855 12.979,9.947 12.2585,10.164 L12.2585,14 L11.2585,14 L11.2585,10.164 C10.5385,9.947 10.0085,9.2855 10.0085,8.4955 C10.0085,7.7055 10.5385,7.044 11.2585,6.827 L11.2585,2 L12.2585,2 L12.2585,6.827 Z M8.2585,3.827 C8.979,4.044 9.5085,4.706 9.5085,5.4955 C9.5085,6.2855 8.979,6.947 8.2585,7.164 L8.2585,14 L7.2585,14 L7.2585,7.164 C6.5385,6.947 6.0085,6.2855 6.0085,5.4955 C6.0085,4.7055 6.5385,4.044 7.2585,3.827 L7.2585,2 L8.2585,2 L8.2585,3.827 Z M8.263,6.0505 C8.4155,5.913 8.513,5.7165 8.513,5.4955 C8.513,5.275 8.4155,5.078 8.263,4.9405 C8.13,4.821 7.956,4.7455 7.763,4.7455 C7.57,4.7455 7.3965,4.8205 7.263,4.9405 C7.1105,5.078 7.013,5.2745 7.013,5.4955 C7.013,5.7165 7.1105,5.9135 7.263,6.0505 C7.3965,6.1705 7.57,6.2455 7.763,6.2455 C7.956,6.2455 8.13,6.1705 8.263,6.0505 Z M4.2585,8.83015 C4.9745,9.04965 5.5,9.70915 5.5,10.49565 C5.5,11.28215 4.9745,11.94165 4.2585,12.16115 L4.2585,14.00015 L3.2585,14.00015 L3.2585,12.16665 C2.5335,11.95265 2,11.28865 2,10.49565 C2,9.70215 2.5335,9.03815 3.2585,8.82465 L3.2585,2.00015 L4.2585,2.00015 L4.2585,8.83015 Z M4.263,11.04315 C4.4105,10.90615 4.504,10.71215 4.504,10.49565 C4.504,10.27915 4.4105,10.08515 4.263,9.94815 C4.129,9.82365 3.951,9.74565 3.754,9.74565 C3.5655,9.74565 3.3955,9.81765 3.263,9.93315 C3.106,10.07115 3.004,10.27065 3.004,10.49565 C3.004,10.72015 3.106,10.92015 3.263,11.05765 C3.3955,11.17315 3.5655,11.24565 3.754,11.24565 C3.951,11.24565 4.129,11.16765 4.263,11.04315 Z" id="Combined-Shape"></path>
        </g>
    </g>
</svg>