<?xml version="1.0" encoding="UTF-8"?>
<svg width="16px" height="16px" viewBox="0 0 16 16" version="1.1" xmlns="http://www.w3.org/2000/svg" xmlns:xlink="http://www.w3.org/1999/xlink">
    <!-- Generator: Sketch 46.2 (44496) - http://www.bohemiancoding.com/sketch -->
    <title>Artboard 2 Copy</title>
    <desc>Created with Sketch.</desc>
    <defs></defs>
    <g id="Icons" stroke="none" stroke-width="1" fill="none" fill-rule="evenodd">
        <g id="Artboard-2-Copy" fill="#28DCAA">
            <g id="CircleCheck_16-Copy" transform="translate(1.000000, 1.000000)">
                <path d="M7,0 C3.14,0 0,3.14 0,7 C0,10.86 3.14,14 7,14 C10.86,14 14,10.86 14,7 C14,3.14 10.86,0 7,0 M7,1 C10.3135,1 13,3.6865 13,7 C13,10.3135 10.3135,13 7,13 C3.6865,13 1,10.3135 1,7 C1,3.6865 3.6865,1 7,1 Z M6.5132,9.5669 L9.7992,5.4724 L9.0192,4.8464 L6.3962,8.1149 L4.9257,6.7879 L4.2557,7.5304 L6.5132,9.5669 Z" id="Combined-Shape"></path>
            </g>
        </g>
    </g>
</svg>