<?xml version="1.0" encoding="UTF-8" standalone="no"?>
<svg width="16px" height="16px" viewBox="0 0 16 16" version="1.1" xmlns="http://www.w3.org/2000/svg" xmlns:xlink="http://www.w3.org/1999/xlink">
    <!-- Generator: Sketch 45.1 (43504) - http://www.bohemiancoding.com/sketch -->
    <title>16</title>
    <desc>Created with Sketch.</desc>
    <defs></defs>
    <g id="Icons" stroke="none" stroke-width="1" fill="none" fill-rule="evenodd">
        <g id="16">
            <g id="Lock_16">
                <polygon id="Fill-1" points="0 16 16 16 16 0 0 0"></polygon>
                <path d="M13,14 L3,14 L3,7 L4,7 L12,7 L13,7 L13,14 Z M5,4.5 C5,2.8455 6.3455,2 8,2 C9.6545,2 11,2.8455 11,4.5 L11,6 L5,6 L5,4.5 Z M12,6 L12,4.5 C12,2.2945 10.2055,1 8,1 C5.7945,1 4,2.2945 4,4.5 L4,6 L2,6 L2,15 L14,15 L14,6 L12,6 Z" id="Fill-2" fill="#003BDE"></path>
            </g>
        </g>
    </g>
</svg>