<?xml version="1.0" encoding="UTF-8" standalone="no"?>
<svg width="24px" height="24px" viewBox="0 0 24 24" version="1.1" xmlns="http://www.w3.org/2000/svg" xmlns:xlink="http://www.w3.org/1999/xlink">
    <!-- Generator: Sketch 45.1 (43504) - http://www.bohemiancoding.com/sketch -->
    <title>24</title>
    <desc>Created with Sketch.</desc>
    <defs></defs>
    <g id="Icons" stroke="none" stroke-width="1" fill="none" fill-rule="evenodd">
        <g id="24">
            <g id="Search_24">
                <polygon id="Fill-37" points="0 24 24 24 24 0 0 0"></polygon>
                <path d="M3,9.75 C3,6.02775 6.02775,3 9.75,3 C13.47225,3 16.5,6.02775 16.5,9.75 C16.5,13.47225 13.47225,16.5 9.75,16.5 C6.02775,16.5 3,13.47225 3,9.75 L3,9.75 Z M22.281,21.21975 L16.086,15.02475 C17.28,13.59375 18,11.75475 18,9.75 C18,5.20125 14.29875,1.5 9.75,1.5 C5.20125,1.5 1.5,5.20125 1.5,9.75 C1.5,14.29875 5.20125,18 9.75,18 C11.7555,18 13.5945,17.27925 15.0255,16.08525 L21.2205,22.28025 L22.281,21.21975 Z" id="Fill-108" fill="#5C6B7E"></path>
            </g>
        </g>
    </g>
</svg>