<?xml version="1.0" encoding="UTF-8" standalone="no"?>
<svg width="16px" height="16px" viewBox="0 0 16 16" version="1.1" xmlns="http://www.w3.org/2000/svg" xmlns:xlink="http://www.w3.org/1999/xlink">
    <!-- Generator: Sketch 45.1 (43504) - http://www.bohemiancoding.com/sketch -->
    <title>16</title>
    <desc>Created with Sketch.</desc>
    <defs></defs>
    <g id="Icons" stroke="none" stroke-width="1" fill="none" fill-rule="evenodd">
        <g id="16">
            <g id="Profile_16">
                <polygon id="Fill-35" points="0 16 16 16 16 0 0 0"></polygon>
                <path d="M3.5117,14 C3.8167,11.9235 4.8252,8 6.9167,8 L9.0837,8 C11.1717,8 12.1817,11.9235 12.4882,14 L3.5117,14 Z M5.5002,4.5 C5.5002,3.8325 5.7602,3.2045 6.2322,2.7325 C6.7047,2.2605 7.3327,2 8.0002,2 C8.6677,2 9.2952,2.2605 9.7677,2.7325 C10.2397,3.2045 10.5002,3.8325 10.5002,4.5 C10.5002,5.1675 10.2397,5.7955 9.7677,6.2675 C9.2952,6.7395 8.6677,7 8.0002,7 C7.3327,7 6.7047,6.7395 6.2322,6.2675 C5.7602,5.7955 5.5002,5.1675 5.5002,4.5 L5.5002,4.5 Z M13.5532,14.4485 C13.5247,14.1775 12.9012,8.4765 10.1752,7.2395 C10.2787,7.1565 10.3792,7.07 10.4747,6.9745 C11.1357,6.314 11.5002,5.435 11.5002,4.5 C11.5002,3.5655 11.1357,2.6865 10.4747,2.0255 C9.8137,1.3645 8.9347,1 8.0002,1 C7.0647,1 6.1862,1.3645 5.5252,2.0255 C4.8642,2.686 4.5002,3.565 4.5002,4.5 C4.5002,5.435 4.8642,6.314 5.5252,6.9745 C5.6207,7.07 5.7212,7.1565 5.8247,7.2395 C3.0987,8.4765 2.4752,14.1775 2.4467,14.4485 L2.3902,15 L13.6097,15 L13.5532,14.4485 Z" id="Fill-141" fill="#001837"></path>
            </g>
        </g>
    </g>
</svg>