<?xml version="1.0" encoding="UTF-8"?>
<svg width="16px" height="16px" viewBox="0 0 16 16" version="1.1" xmlns="http://www.w3.org/2000/svg" xmlns:xlink="http://www.w3.org/1999/xlink">
    <!-- Generator: Sketch 46.2 (44496) - http://www.bohemiancoding.com/sketch -->
    <title>Artboard</title>
    <desc>Created with Sketch.</desc>
    <defs></defs>
    <g id="Page-1" stroke="none" stroke-width="1" fill="none" fill-rule="evenodd">
        <g id="Artboard">
            <g id="Group-6">
                <polygon id="Fill-78" points="0 16 16 16 16 0 0 0"></polygon>
                <path d="M8,1 C4.14,1 1,4.14 1,8 C1,11.86 4.14,15 8,15 C11.86,15 15,11.86 15,8 C15,4.14 11.86,1 8,1 M8,2 C11.3135,2 14,4.6865 14,8 C14,11.3135 11.3135,14 8,14 C4.6865,14 2,11.3135 2,8 C2,4.6865 4.6865,2 8,2 Z M7.5176,9.25685 L8.4996,9.25685 L8.4996,9.04035 C8.4996,8.55785 8.6161,8.41585 9.0491,8.03335 C9.5651,7.58385 9.8816,7.26735 9.8816,6.55985 C9.8816,5.51135 9.0656,4.95385 8.1086,4.95385 C7.0846,4.95385 6.2941,5.57785 6.1691,6.63485 L7.1931,6.72635 C7.2096,6.27685 7.5261,5.86085 8.0421,5.86085 C8.5326,5.86085 8.8241,6.19385 8.8241,6.62635 C8.8241,6.95935 8.6496,7.17585 8.4416,7.36785 L8.0671,7.72535 C7.6506,8.12485 7.5176,8.40785 7.5176,8.94035 L7.5176,9.25685 Z M7.9917,10 C7.6257,10 7.3262,10.2915 7.3262,10.6495 C7.3262,11.0075 7.6422,11.2815 7.9917,11.2815 C8.3577,11.2815 8.6577,10.9905 8.6577,10.633 C8.6577,10.275 8.3497,10 7.9917,10 Z" id="Combined-Shape" fill="#003BDE"></path>
            </g>
        </g>
    </g>
</svg>