<?xml version="1.0" encoding="UTF-8"?>
<svg width="16px" height="16px" viewBox="0 0 16 16" version="1.1" xmlns="http://www.w3.org/2000/svg" xmlns:xlink="http://www.w3.org/1999/xlink">
    <!-- Generator: Sketch 46.2 (44496) - http://www.bohemiancoding.com/sketch -->
    <title>Artboard 2 Copy 2</title>
    <desc>Created with Sketch.</desc>
    <defs></defs>
    <g id="Icons" stroke="none" stroke-width="1" fill="none" fill-rule="evenodd">
        <g id="Artboard-2-Copy-2" fill="#003BDE">
            <g id="Appointment_16-Copy" transform="translate(1.000000, 1.000000)">
                <path d="M1,13 L13,13 L13,5 L1,5 L1,13 Z M3,2 L3,3 L4,3 L4,2 L10,2 L10,3 L11,3 L11,2 L13,2 L13,4 L1,4 L1,2 L3,2 Z M11,1 L14,1 L14,14 L0,14 L0,1 L3,1 L3,0 L4,0 L4,1 L10,1 L10,0 L11,0 L11,1 Z M6.39625,10.11475 L4.92575,8.78775 L4.25575,9.53075 L6.51275,11.56675 L9.79925,7.47225 L9.01925,6.84625 L6.39625,10.11475 Z" id="Combined-Shape"></path>
            </g>
        </g>
    </g>
</svg>