<?xml version="1.0" encoding="UTF-8"?>
<svg width="24px" height="24px" viewBox="0 0 24 24" version="1.1" xmlns="http://www.w3.org/2000/svg" xmlns:xlink="http://www.w3.org/1999/xlink">
    <!-- Generator: Sketch 46.2 (44496) - http://www.bohemiancoding.com/sketch -->
    <title>Artboard</title>
    <desc>Created with Sketch.</desc>
    <defs></defs>
    <g id="Icons" stroke="none" stroke-width="1" fill="none" fill-rule="evenodd">
        <g id="Artboard" fill="#003BDE">
            <path d="M7.5,12.75 L7.5,11.25 L21,11.25 L21,12.75 L7.5,12.75 Z M7.5,7.5 L7.5,6 L21,6 L21,7.5 L7.5,7.5 Z M7.5,18 L7.5,16.5 L21,16.5 L21,18 L7.5,18 Z M3,7.5 L3,6 L5.25,6 L5.25,7.5 L3,7.5 Z M3,12.75 L3,11.25 L5.25,11.25 L5.25,12.75 L3,12.75 Z M3,18 L3,16.5 L5.25,16.5 L5.25,18 L3,18 Z" id="Combined-Shape"></path>
        </g>
    </g>
</svg>