<?xml version="1.0" encoding="UTF-8"?>
<svg width="24px" height="24px" viewBox="0 0 24 24" version="1.1" xmlns="http://www.w3.org/2000/svg" xmlns:xlink="http://www.w3.org/1999/xlink">
    <!-- Generator: Sketch 46.2 (44496) - http://www.bohemiancoding.com/sketch -->
    <title>Artboard</title>
    <desc>Created with Sketch.</desc>
    <defs></defs>
    <g id="Icons" stroke="none" stroke-width="1" fill="none" fill-rule="evenodd">
        <g id="Artboard" fill="#001837">
            <path d="M16.49985,1.500075 L16.49985,3.000075 L7.49985,3.000075 L7.49985,1.500075 L6.0006,1.500075 L6.0006,3.000075 L1.49985,3.000075 L1.49985,22.500075 L22.49985,22.500075 L22.49985,3.000075 L17.99985,3.000075 L17.99985,1.500075 L16.49985,1.500075 Z M17.99985,6.000075 L17.99985,4.500075 L20.99985,4.500075 L20.99985,7.500075 L2.99985,7.500075 L2.99985,4.500075 L6.0006,4.500075 L6.0006,6.000075 L7.49985,6.000075 L7.49985,4.500075 L16.49985,4.500075 L16.49985,6.000075 L17.99985,6.000075 Z M2.99985,21.000075 L2.99985,9.000075 L20.99985,9.000075 L20.99985,21.000075 L2.99985,21.000075 Z M6,13.5 L7.5,13.5 L7.5,12 L6,12 L6,13.5 Z M9,13.5 L10.5,13.5 L10.5,12 L9,12 L9,13.5 Z M12,13.5 L13.5,13.5 L13.5,12 L12,12 L12,13.5 Z M12,16.5 L13.5,16.5 L13.5,15 L12,15 L12,16.5 Z M6,16.5 L7.5,16.5 L7.5,15 L6,15 L6,16.5 Z M9,16.5 L10.5,16.5 L10.5,15 L9,15 L9,16.5 Z M15,13.5 L16.5,13.5 L16.5,12 L15,12 L15,13.5 Z" id="Combined-Shape"></path>
        </g>
    </g>
</svg>