<?xml version="1.0" encoding="UTF-8" standalone="no"?>
<svg width="16px" height="16px" viewBox="0 0 16 16" version="1.1" xmlns="http://www.w3.org/2000/svg" xmlns:xlink="http://www.w3.org/1999/xlink">
    <!-- Generator: Sketch 45.1 (43504) - http://www.bohemiancoding.com/sketch -->
    <title>16</title>
    <desc>Created with Sketch.</desc>
    <defs></defs>
    <g id="Icons" stroke="none" stroke-width="1" fill="none" fill-rule="evenodd">
        <g id="16">
            <g id="Money_16">
                <polygon id="Fill-3" points="0 16 16 16 16 0 0 0"></polygon>
                <path d="M8,1 C11.86,1 15,4.14 15,8 C15,11.86 11.86,15 8,15 C4.14,15 1,11.86 1,8 C1,4.14 4.14,1 8,1 Z M8,14 C11.3135,14 14,11.3135 14,8 C14,4.6865 11.3135,2 8,2 C4.6865,2 2,4.6865 2,8 C2,11.3135 4.6865,14 8,14 Z M9.4275,7.90285 C9.583,8.00535 9.717,8.14235 9.8305,8.31485 C9.9435,8.48635 10,8.70585 10,8.97435 C10,9.19285 9.958,9.39585 9.8735,9.58285 C9.7895,9.77035 9.664,9.93235 9.4975,10.06785 C9.331,10.20435 9.125,10.31035 8.8785,10.38635 C8.7615,10.42235 8.6345,10.44835 8.5,10.46735 L8.5,11.49985 L7.5,11.49985 L7.5,10.44935 C7.42,10.43485 7.3395,10.42385 7.261,10.40285 C7.015,10.33785 6.7975,10.23635 6.609,10.09835 C6.4205,9.95985 6.271,9.78435 6.16,9.56985 C6.049,9.35535 5.996,9.10085 6.0005,8.80685 L7.012,8.80685 C7.012,8.96735 7.0405,9.10285 7.0985,9.21485 C7.156,9.32635 7.2325,9.41685 7.328,9.48585 C7.4235,9.55535 7.5355,9.60635 7.664,9.63985 C7.7925,9.67335 7.926,9.68985 8.063,9.68985 C8.1565,9.68985 8.2565,9.68285 8.363,9.66685 C8.469,9.65135 8.569,9.62135 8.6625,9.57635 C8.7555,9.53185 8.8335,9.47035 8.895,9.39235 C8.9575,9.31435 8.9885,9.21485 8.9885,9.09435 C8.9885,8.96485 8.9475,8.86035 8.8655,8.77985 C8.783,8.69935 8.676,8.63235 8.5425,8.57885 C8.4095,8.52535 8.2585,8.47835 8.09,8.43835 C7.9215,8.39835 7.7505,8.35335 7.5775,8.30485 C7.4,8.25985 7.227,8.20485 7.0585,8.14085 C6.8895,8.07635 6.739,7.99285 6.606,7.88935 C6.4725,7.78685 6.365,7.65885 6.283,7.50485 C6.201,7.35085 6.16,7.16385 6.16,6.94585 C6.16,6.70035 6.212,6.48685 6.3165,6.30685 C6.4205,6.12585 6.557,5.97535 6.7255,5.85435 C6.894,5.73435 7.085,5.64485 7.298,5.58685 C7.3655,5.56885 7.4325,5.55835 7.5,5.54585 L7.5,4.49985 L8.5,4.49985 L8.5,5.55635 C8.551,5.56585 8.603,5.57135 8.6525,5.58335 C8.881,5.63935 9.084,5.72985 9.261,5.85435 C9.4385,5.97935 9.5795,6.13935 9.684,6.33285 C9.788,6.52735 9.8405,6.76335 9.8405,7.03935 L8.8285,7.03935 C8.8195,6.89685 8.79,6.77885 8.739,6.68435 C8.688,6.59135 8.62,6.51735 8.536,6.46385 C8.4515,6.41035 8.355,6.37235 8.2465,6.35035 C8.1375,6.32785 8.019,6.31635 7.89,6.31635 C7.806,6.31635 7.7215,6.32585 7.637,6.34335 C7.553,6.36135 7.4765,6.39235 7.4075,6.43735 C7.339,6.48135 7.282,6.53735 7.238,6.60385 C7.1935,6.67135 7.1715,6.75585 7.1715,6.85835 C7.1715,6.95285 7.1895,7.02835 7.225,7.08635 C7.2605,7.14385 7.33,7.19835 7.4345,7.24685 C7.5385,7.29585 7.683,7.34535 7.867,7.39385 C8.051,7.44335 8.292,7.50585 8.589,7.58135 C8.678,7.59985 8.801,7.63185 8.9585,7.67885 C9.116,7.72585 9.2725,7.80035 9.4275,7.90285 Z" id="Combined-Shape" fill="#003BDE"></path>
            </g>
        </g>
    </g>
</svg>