<?xml version="1.0" encoding="UTF-8"?>
<svg width="16px" height="16px" viewBox="0 0 16 16" version="1.1" xmlns="http://www.w3.org/2000/svg" xmlns:xlink="http://www.w3.org/1999/xlink">
    <!-- Generator: Sketch 46.2 (44496) - http://www.bohemiancoding.com/sketch -->
    <title>Artboard 2</title>
    <desc>Created with Sketch.</desc>
    <defs></defs>
    <g id="Icons" stroke="none" stroke-width="1" fill="none" fill-rule="evenodd">
        <g id="Artboard-2" fill="#FCB137">
            <path d="M8,1 C4.14,1 1,4.14 1,8 C1,11.86 4.14,15 8,15 C11.86,15 15,11.86 15,8 C15,4.14 11.86,1 8,1 M8,2 C11.3135,2 14,4.6865 14,8 C14,11.3135 11.3135,14 8,14 C4.6865,14 2,11.3135 2,8 C2,4.6865 4.6865,2 8,2 Z M8,10 C7.634,10 7.334,10.2915 7.334,10.6495 C7.334,11.0075 7.6505,11.2815 8,11.2815 C8.366,11.2815 8.666,10.9905 8.666,10.633 C8.666,10.275 8.358,10 8,10 Z M7.5,9 L8.4995,9 L8.4995,5 L7.5,5 L7.5,9 Z" id="Combined-Shape"></path>
        </g>
    </g>
</svg>