<?xml version="1.0" encoding="UTF-8"?>
<svg width="24px" height="24px" viewBox="0 0 24 24" version="1.1" xmlns="http://www.w3.org/2000/svg" xmlns:xlink="http://www.w3.org/1999/xlink">
    <!-- Generator: Sketch 46.2 (44496) - http://www.bohemiancoding.com/sketch -->
    <title>Artboard</title>
    <desc>Created with Sketch.</desc>
    <defs></defs>
    <g id="Icons" stroke="none" stroke-width="1" fill="none" fill-rule="evenodd">
        <g id="Artboard" fill="#003BDE">
            <path d="M16.5,1.5 L16.5,3 L7.5,3 L7.5,1.5 L6.00075,1.5 L6.00075,3 L1.5,3 L1.5,22.5 L22.5,22.5 L22.5,3 L18,3 L18,1.5 L16.5,1.5 Z M18,6 L18,4.5 L21,4.5 L21,7.5 L3,7.5 L3,4.5 L6.00075,4.5 L6.00075,6 L7.5,6 L7.5,4.5 L16.5,4.5 L16.5,6 L18,6 Z M3,21 L3,9 L21,9 L21,21 L3,21 Z M6.00015,13.499925 L7.50015,13.499925 L7.50015,11.999925 L6.00015,11.999925 L6.00015,13.499925 Z M9.00015,13.499925 L10.50015,13.499925 L10.50015,11.999925 L9.00015,11.999925 L9.00015,13.499925 Z M12.00015,13.499925 L13.50015,13.499925 L13.50015,11.999925 L12.00015,11.999925 L12.00015,13.499925 Z M12.00015,16.499925 L13.50015,16.499925 L13.50015,14.999925 L12.00015,14.999925 L12.00015,16.499925 Z M6.00015,16.499925 L7.50015,16.499925 L7.50015,14.999925 L6.00015,14.999925 L6.00015,16.499925 Z M9.00015,16.499925 L10.50015,16.499925 L10.50015,14.999925 L9.00015,14.999925 L9.00015,16.499925 Z M15.00015,13.499925 L16.50015,13.499925 L16.50015,11.999925 L15.00015,11.999925 L15.00015,13.499925 Z" id="Combined-Shape"></path>
        </g>
    </g>
</svg>