<?xml version="1.0" encoding="UTF-8"?>
<svg width="16px" height="16px" viewBox="0 0 16 16" version="1.1" xmlns="http://www.w3.org/2000/svg" xmlns:xlink="http://www.w3.org/1999/xlink">
    <!-- Generator: Sketch 46.2 (44496) - http://www.bohemiancoding.com/sketch -->
    <title>Artboard 2</title>
    <desc>Created with Sketch.</desc>
    <defs></defs>
    <g id="Icons" stroke="none" stroke-width="1" fill="none" fill-rule="evenodd">
        <g id="Artboard-2" fill="#99A8BB">
            <path d="M13,9 C12.4485,9 12,8.5515 12,8 C12,7.4485 12.4485,7 13,7 C13.5515,7 14,7.4485 14,8 C14,8.5515 13.5515,9 13,9 M15,8 C15,6.897 14.103,6 13,6 C11.897,6 11,6.897 11,8 C11,8.929 11.64,9.7055 12.5,9.929 L12.5,10.75 C12.5,12.542 11.042,14 9.25,14 C7.458,14 6,12.542 6,10.75 L6,9.9655 C7.97,9.718 9.5,8.036 9.5,6 L9.5,1 L7,1 L7,2 L8.5,2 L8.5,6 C8.5,7.6545 7.1545,9 5.5,9 C3.8455,9 2.5,7.6545 2.5,6 L2.5,2 L4,2 L4,1 L1.5,1 L1.5,6 C1.5,8.036 3.03,9.718 5,9.9655 L5,10.75 C5,13.0935 6.9065,15 9.25,15 C11.5935,15 13.5,13.0935 13.5,10.75 L13.5,9.929 C14.36,9.7055 15,8.929 15,8" id="Fill-270"></path>
        </g>
    </g>
</svg>